<?xml version="1.0" standalone="no"?>
<!DOCTYPE svg PUBLIC "-//W3C//DTD SVG 20010904//EN"
 "http://www.w3.org/TR/2001/REC-SVG-20010904/DTD/svg10.dtd">
<svg version="1.0" xmlns="http://www.w3.org/2000/svg"
 width="512.000000pt" height="512.000000pt" viewBox="0 0 512.000000 512.000000"
 preserveAspectRatio="xMidYMid meet">

<g transform="translate(0.000000,512.000000) scale(0.100000,-0.100000)"
fill="#000000" stroke="none">
<path d="M433 5105 c-200 -43 -376 -221 -418 -422 -22 -102 -22 -4144 0 -4246
43 -203 219 -379 422 -422 105 -22 2598 -22 2692 0 203 48 364 207 416 410 13
50 15 169 15 783 l0 724 -34 34 c-28 28 -42 34 -76 34 -34 0 -48 -6 -76 -34
l-34 -34 0 -701 c0 -466 -4 -717 -11 -751 -14 -67 -76 -157 -136 -197 -99 -66
-36 -64 -1439 -61 -1458 3 -1319 -7 -1430 103 -110 108 -99 -137 -99 2235 0
2372 -11 2127 99 2235 111 110 -28 100 1430 103 1122 2 1276 1 1330 -13 104
-27 178 -88 225 -185 l26 -55 5 -733 5 -734 33 -29 c47 -43 102 -41 148 5 l34
34 0 724 c0 797 1 779 -63 908 -43 88 -151 195 -238 237 -133 66 -63 63 -1479
62 -1041 0 -1297 -3 -1347 -14z"/>
<path d="M4288 3324 c-34 -18 -58 -62 -58 -106 0 -29 26 -59 257 -290 l257
-258 -1668 0 -1668 0 -34 -34 c-28 -28 -34 -42 -34 -76 0 -34 6 -48 34 -76
l34 -34 1668 0 1668 0 -257 -258 c-231 -231 -257 -261 -257 -290 0 -45 24 -89
60 -107 36 -19 63 -19 98 -1 15 8 186 174 380 368 l352 354 0 44 0 44 -352
354 c-194 194 -365 360 -380 368 -34 18 -65 17 -100 -2z"/>
</g>
</svg>
